<?xml version="1.0" encoding="UTF-8"?>
<svg xmlns="http://www.w3.org/2000/svg" width="440" height="880" viewBox="0 0 440 880">
<rect x="0" y="0" width="440" height="880" fill="#080810"/>
<line x1="0" y1="0" x2="0" y2="880" stroke="#14142a" stroke-width="1"/>
<line x1="44" y1="0" x2="44" y2="880" stroke="#14142a" stroke-width="1"/>
<line x1="88" y1="0" x2="88" y2="880" stroke="#14142a" stroke-width="1"/>
<line x1="132" y1="0" x2="132" y2="880" stroke="#14142a" stroke-width="1"/>
<line x1="176" y1="0" x2="176" y2="880" stroke="#14142a" stroke-width="1"/>
<line x1="220" y1="0" x2="220" y2="880" stroke="#14142a" stroke-width="1"/>
<line x1="264" y1="0" x2="264" y2="880" stroke="#14142a" stroke-width="1"/>
<line x1="308" y1="0" x2="308" y2="880" stroke="#14142a" stroke-width="1"/>
<line x1="352" y1="0" x2="352" y2="880" stroke="#14142a" stroke-width="1"/>
<line x1="396" y1="0" x2="396" y2="880" stroke="#14142a" stroke-width="1"/>
<line x1="440" y1="0" x2="440" y2="880" stroke="#14142a" stroke-width="1"/>
<line x1="0" y1="0" x2="440" y2="0" stroke="#14142a" stroke-width="1"/>
<line x1="0" y1="44" x2="440" y2="44" stroke="#14142a" stroke-width="1"/>
<line x1="0" y1="88" x2="440" y2="88" stroke="#14142a" stroke-width="1"/>
<line x1="0" y1="132" x2="440" y2="132" stroke="#14142a" stroke-width="1"/>
<line x1="0" y1="176" x2="440" y2="176" stroke="#14142a" stroke-width="1"/>
<line x1="0" y1="220" x2="440" y2="220" stroke="#14142a" stroke-width="1"/>
<line x1="0" y1="264" x2="440" y2="264" stroke="#14142a" stroke-width="1"/>
<line x1="0" y1="308" x2="440" y2="308" stroke="#14142a" stroke-width="1"/>
<line x1="0" y1="352" x2="440" y2="352" stroke="#14142a" stroke-width="1"/>
<line x1="0" y1="396" x2="440" y2="396" stroke="#14142a" stroke-width="1"/>
<line x1="0" y1="440" x2="440" y2="440" stroke="#14142a" stroke-width="1"/>
<line x1="0" y1="484" x2="440" y2="484" stroke="#14142a" stroke-width="1"/>
<line x1="0" y1="528" x2="440" y2="528" stroke="#14142a" stroke-width="1"/>
<line x1="0" y1="572" x2="440" y2="572" stroke="#14142a" stroke-width="1"/>
<line x1="0" y1="616" x2="440" y2="616" stroke="#14142a" stroke-width="1"/>
<line x1="0" y1="660" x2="440" y2="660" stroke="#14142a" stroke-width="1"/>
<line x1="0" y1="704" x2="440" y2="704" stroke="#14142a" stroke-width="1"/>
<line x1="0" y1="748" x2="440" y2="748" stroke="#14142a" stroke-width="1"/>
<line x1="0" y1="792" x2="440" y2="792" stroke="#14142a" stroke-width="1"/>
<line x1="0" y1="836" x2="440" y2="836" stroke="#14142a" stroke-width="1"/>
<line x1="0" y1="880" x2="440" y2="880" stroke="#14142a" stroke-width="1"/>
<rect x="1" y="1" width="42" height="42" fill="#00C8C8" stroke="#3a3a5a" stroke-width="1"/>
<rect x="45" y="1" width="42" height="42" fill="#00C8C8" stroke="#3a3a5a" stroke-width="1"/>
<rect x="89" y="1" width="42" height="42" fill="#2850C8" stroke="#3a3a5a" stroke-width="1"/>
<rect x="133" y="1" width="42" height="42" fill="#00C8C8" stroke="#3a3a5a" stroke-width="1"/>
<rect x="177" y="1" width="42" height="42" fill="#00C8C8" stroke="#3a3a5a" stroke-width="1"/>
<rect x="221" y="1" width="42" height="42" fill="#00C8C8" stroke="#3a3a5a" stroke-width="1"/>
<rect x="265" y="1" width="42" height="42" fill="#00C8C8" stroke="#3a3a5a" stroke-width="1"/>
<rect x="309" y="1" width="42" height="42" fill="#C86000" stroke="#3a3a5a" stroke-width="1"/>
<rect x="353" y="1" width="42" height="42" fill="#00C8C8" stroke="#3a3a5a" stroke-width="1"/>
<rect x="397" y="1" width="42" height="42" fill="#00C8C8" stroke="#3a3a5a" stroke-width="1"/>
<rect x="1" y="45" width="42" height="42" fill="#00C8C8" stroke="#3a3a5a" stroke-width="1"/>
<rect x="45" y="45" width="42" height="42" fill="#00C8C8" stroke="#3a3a5a" stroke-width="1"/>
<rect x="89" y="45" width="42" height="42" fill="#2850C8" stroke="#3a3a5a" stroke-width="1"/>
<rect x="133" y="45" width="42" height="42" fill="#2850C8" stroke="#3a3a5a" stroke-width="1"/>
<rect x="177" y="45" width="42" height="42" fill="#2850C8" stroke="#3a3a5a" stroke-width="1"/>
<rect x="221" y="45" width="42" height="42" fill="#C86000" stroke="#3a3a5a" stroke-width="1"/>
<rect x="265" y="45" width="42" height="42" fill="#C86000" stroke="#3a3a5a" stroke-width="1"/>
<rect x="309" y="45" width="42" height="42" fill="#C86000" stroke="#3a3a5a" stroke-width="1"/>
<rect x="353" y="45" width="42" height="42" fill="#00C8C8" stroke="#3a3a5a" stroke-width="1"/>
<rect x="397" y="45" width="42" height="42" fill="#00C8C8" stroke="#3a3a5a" stroke-width="1"/>
<rect x="1" y="89" width="42" height="42" fill="#00C8C8" stroke="#3a3a5a" stroke-width="1"/>
<rect x="45" y="89" width="42" height="42" fill="#00C8C8" stroke="#3a3a5a" stroke-width="1"/>
<rect x="89" y="89" width="42" height="42" fill="#2850C8" stroke="#3a3a5a" stroke-width="1"/>
<rect x="133" y="89" width="42" height="42" fill="#2850C8" stroke="#3a3a5a" stroke-width="1"/>
<rect x="177" y="89" width="42" height="42" fill="#2850C8" stroke="#3a3a5a" stroke-width="1"/>
<rect x="221" y="89" width="42" height="42" fill="#C86000" stroke="#3a3a5a" stroke-width="1"/>
<rect x="265" y="89" width="42" height="42" fill="#C86000" stroke="#3a3a5a" stroke-width="1"/>
<rect x="309" y="89" width="42" height="42" fill="#C86000" stroke="#3a3a5a" stroke-width="1"/>
<rect x="353" y="89" width="42" height="42" fill="#00C8C8" stroke="#3a3a5a" stroke-width="1"/>
<rect x="397" y="89" width="42" height="42" fill="#00C8C8" stroke="#3a3a5a" stroke-width="1"/>
<rect x="1" y="133" width="42" height="42" fill="#00C8C8" stroke="#3a3a5a" stroke-width="1"/>
<rect x="45" y="133" width="42" height="42" fill="#00C8C8" stroke="#3a3a5a" stroke-width="1"/>
<rect x="89" y="133" width="42" height="42" fill="#C8B400" stroke="#3a3a5a" stroke-width="1"/>
<rect x="133" y="133" width="42" height="42" fill="#C8B400" stroke="#3a3a5a" stroke-width="1"/>
<rect x="177" y="133" width="42" height="42" fill="#2850C8" stroke="#3a3a5a" stroke-width="1"/>
<rect x="221" y="133" width="42" height="42" fill="#C86000" stroke="#3a3a5a" stroke-width="1"/>
<rect x="265" y="133" width="42" height="42" fill="#C8B400" stroke="#3a3a5a" stroke-width="1"/>
<rect x="309" y="133" width="42" height="42" fill="#C8B400" stroke="#3a3a5a" stroke-width="1"/>
<rect x="353" y="133" width="42" height="42" fill="#00C8C8" stroke="#3a3a5a" stroke-width="1"/>
<rect x="397" y="133" width="42" height="42" fill="#00C8C8" stroke="#3a3a5a" stroke-width="1"/>
<rect x="1" y="177" width="42" height="42" fill="#C86000" stroke="#3a3a5a" stroke-width="1"/>
<rect x="45" y="177" width="42" height="42" fill="#00A000" stroke="#3a3a5a" stroke-width="1"/>
<rect x="89" y="177" width="42" height="42" fill="#C8B400" stroke="#3a3a5a" stroke-width="1"/>
<rect x="133" y="177" width="42" height="42" fill="#C8B400" stroke="#3a3a5a" stroke-width="1"/>
<rect x="177" y="177" width="42" height="42" fill="#C82000" stroke="#3a3a5a" stroke-width="1"/>
<rect x="221" y="177" width="42" height="42" fill="#00A000" stroke="#3a3a5a" stroke-width="1"/>
<rect x="265" y="177" width="42" height="42" fill="#C8B400" stroke="#3a3a5a" stroke-width="1"/>
<rect x="309" y="177" width="42" height="42" fill="#C8B400" stroke="#3a3a5a" stroke-width="1"/>
<rect x="353" y="177" width="42" height="42" fill="#C82000" stroke="#3a3a5a" stroke-width="1"/>
<rect x="397" y="177" width="42" height="42" fill="#2850C8" stroke="#3a3a5a" stroke-width="1"/>
<rect x="1" y="221" width="42" height="42" fill="#C86000" stroke="#3a3a5a" stroke-width="1"/>
<rect x="45" y="221" width="42" height="42" fill="#00A000" stroke="#3a3a5a" stroke-width="1"/>
<rect x="89" y="221" width="42" height="42" fill="#00A000" stroke="#3a3a5a" stroke-width="1"/>
<rect x="133" y="221" width="42" height="42" fill="#C82000" stroke="#3a3a5a" stroke-width="1"/>
<rect x="177" y="221" width="42" height="42" fill="#C82000" stroke="#3a3a5a" stroke-width="1"/>
<rect x="221" y="221" width="42" height="42" fill="#00A000" stroke="#3a3a5a" stroke-width="1"/>
<rect x="265" y="221" width="42" height="42" fill="#00A000" stroke="#3a3a5a" stroke-width="1"/>
<rect x="309" y="221" width="42" height="42" fill="#C82000" stroke="#3a3a5a" stroke-width="1"/>
<rect x="353" y="221" width="42" height="42" fill="#C82000" stroke="#3a3a5a" stroke-width="1"/>
<rect x="397" y="221" width="42" height="42" fill="#2850C8" stroke="#3a3a5a" stroke-width="1"/>
<rect x="1" y="265" width="42" height="42" fill="#C86000" stroke="#3a3a5a" stroke-width="1"/>
<rect x="45" y="265" width="42" height="42" fill="#C86000" stroke="#3a3a5a" stroke-width="1"/>
<rect x="89" y="265" width="42" height="42" fill="#00A000" stroke="#3a3a5a" stroke-width="1"/>
<rect x="133" y="265" width="42" height="42" fill="#C82000" stroke="#3a3a5a" stroke-width="1"/>
<rect x="177" y="265" width="42" height="42" fill="#C86000" stroke="#3a3a5a" stroke-width="1"/>
<rect x="221" y="265" width="42" height="42" fill="#2850C8" stroke="#3a3a5a" stroke-width="1"/>
<rect x="265" y="265" width="42" height="42" fill="#00A000" stroke="#3a3a5a" stroke-width="1"/>
<rect x="309" y="265" width="42" height="42" fill="#C82000" stroke="#3a3a5a" stroke-width="1"/>
<rect x="353" y="265" width="42" height="42" fill="#2850C8" stroke="#3a3a5a" stroke-width="1"/>
<rect x="397" y="265" width="42" height="42" fill="#2850C8" stroke="#3a3a5a" stroke-width="1"/>
<rect x="1" y="309" width="42" height="42" fill="#C8B400" stroke="#3a3a5a" stroke-width="1"/>
<rect x="45" y="309" width="42" height="42" fill="#C8B400" stroke="#3a3a5a" stroke-width="1"/>
<rect x="89" y="309" width="42" height="42" fill="#C86000" stroke="#3a3a5a" stroke-width="1"/>
<rect x="133" y="309" width="42" height="42" fill="#C86000" stroke="#3a3a5a" stroke-width="1"/>
<rect x="177" y="309" width="42" height="42" fill="#C86000" stroke="#3a3a5a" stroke-width="1"/>
<rect x="221" y="309" width="42" height="42" fill="#2850C8" stroke="#3a3a5a" stroke-width="1"/>
<rect x="265" y="309" width="42" height="42" fill="#2850C8" stroke="#3a3a5a" stroke-width="1"/>
<rect x="309" y="309" width="42" height="42" fill="#2850C8" stroke="#3a3a5a" stroke-width="1"/>
<rect x="353" y="309" width="42" height="42" fill="#C8B400" stroke="#3a3a5a" stroke-width="1"/>
<rect x="397" y="309" width="42" height="42" fill="#C8B400" stroke="#3a3a5a" stroke-width="1"/>
<rect x="1" y="353" width="42" height="42" fill="#C8B400" stroke="#3a3a5a" stroke-width="1"/>
<rect x="45" y="353" width="42" height="42" fill="#C8B400" stroke="#3a3a5a" stroke-width="1"/>
<rect x="89" y="353" width="42" height="42" fill="#C8B400" stroke="#3a3a5a" stroke-width="1"/>
<rect x="133" y="353" width="42" height="42" fill="#C8B400" stroke="#3a3a5a" stroke-width="1"/>
<rect x="177" y="353" width="42" height="42" fill="#C8B400" stroke="#3a3a5a" stroke-width="1"/>
<rect x="221" y="353" width="42" height="42" fill="#C8B400" stroke="#3a3a5a" stroke-width="1"/>
<rect x="265" y="353" width="42" height="42" fill="#C8B400" stroke="#3a3a5a" stroke-width="1"/>
<rect x="309" y="353" width="42" height="42" fill="#C8B400" stroke="#3a3a5a" stroke-width="1"/>
<rect x="353" y="353" width="42" height="42" fill="#C8B400" stroke="#3a3a5a" stroke-width="1"/>
<rect x="397" y="353" width="42" height="42" fill="#C8B400" stroke="#3a3a5a" stroke-width="1"/>
<rect x="1" y="397" width="42" height="42" fill="#C82000" stroke="#3a3a5a" stroke-width="1"/>
<rect x="45" y="397" width="42" height="42" fill="#C82000" stroke="#3a3a5a" stroke-width="1"/>
<rect x="89" y="397" width="42" height="42" fill="#C8B400" stroke="#3a3a5a" stroke-width="1"/>
<rect x="133" y="397" width="42" height="42" fill="#C8B400" stroke="#3a3a5a" stroke-width="1"/>
<rect x="177" y="397" width="42" height="42" fill="#C8B400" stroke="#3a3a5a" stroke-width="1"/>
<rect x="221" y="397" width="42" height="42" fill="#C8B400" stroke="#3a3a5a" stroke-width="1"/>
<rect x="265" y="397" width="42" height="42" fill="#C8B400" stroke="#3a3a5a" stroke-width="1"/>
<rect x="309" y="397" width="42" height="42" fill="#C8B400" stroke="#3a3a5a" stroke-width="1"/>
<rect x="353" y="397" width="42" height="42" fill="#00A000" stroke="#3a3a5a" stroke-width="1"/>
<rect x="397" y="397" width="42" height="42" fill="#00A000" stroke="#3a3a5a" stroke-width="1"/>
<rect x="1" y="441" width="42" height="42" fill="#2850C8" stroke="#3a3a5a" stroke-width="1"/>
<rect x="45" y="441" width="42" height="42" fill="#C82000" stroke="#3a3a5a" stroke-width="1"/>
<rect x="89" y="441" width="42" height="42" fill="#C82000" stroke="#3a3a5a" stroke-width="1"/>
<rect x="133" y="441" width="42" height="42" fill="#00C8C8" stroke="#3a3a5a" stroke-width="1"/>
<rect x="177" y="441" width="42" height="42" fill="#00C8C8" stroke="#3a3a5a" stroke-width="1"/>
<rect x="221" y="441" width="42" height="42" fill="#00C8C8" stroke="#3a3a5a" stroke-width="1"/>
<rect x="265" y="441" width="42" height="42" fill="#00C8C8" stroke="#3a3a5a" stroke-width="1"/>
<rect x="309" y="441" width="42" height="42" fill="#00A000" stroke="#3a3a5a" stroke-width="1"/>
<rect x="353" y="441" width="42" height="42" fill="#00A000" stroke="#3a3a5a" stroke-width="1"/>
<rect x="397" y="441" width="42" height="42" fill="#C86000" stroke="#3a3a5a" stroke-width="1"/>
<rect x="1" y="485" width="42" height="42" fill="#2850C8" stroke="#3a3a5a" stroke-width="1"/>
<rect x="45" y="485" width="42" height="42" fill="#2850C8" stroke="#3a3a5a" stroke-width="1"/>
<rect x="89" y="485" width="42" height="42" fill="#2850C8" stroke="#3a3a5a" stroke-width="1"/>
<rect x="133" y="485" width="42" height="42" fill="#00C8C8" stroke="#3a3a5a" stroke-width="1"/>
<rect x="177" y="485" width="42" height="42" fill="#00C8C8" stroke="#3a3a5a" stroke-width="1"/>
<rect x="221" y="485" width="42" height="42" fill="#00C8C8" stroke="#3a3a5a" stroke-width="1"/>
<rect x="265" y="485" width="42" height="42" fill="#00C8C8" stroke="#3a3a5a" stroke-width="1"/>
<rect x="309" y="485" width="42" height="42" fill="#C86000" stroke="#3a3a5a" stroke-width="1"/>
<rect x="353" y="485" width="42" height="42" fill="#C86000" stroke="#3a3a5a" stroke-width="1"/>
<rect x="397" y="485" width="42" height="42" fill="#C86000" stroke="#3a3a5a" stroke-width="1"/>
<rect x="1" y="529" width="42" height="42" fill="#C82000" stroke="#3a3a5a" stroke-width="1"/>
<rect x="45" y="529" width="42" height="42" fill="#C82000" stroke="#3a3a5a" stroke-width="1"/>
<rect x="89" y="529" width="42" height="42" fill="#9600C8" stroke="#3a3a5a" stroke-width="1"/>
<rect x="133" y="529" width="42" height="42" fill="#9600C8" stroke="#3a3a5a" stroke-width="1"/>
<rect x="177" y="529" width="42" height="42" fill="#9600C8" stroke="#3a3a5a" stroke-width="1"/>
<rect x="221" y="529" width="42" height="42" fill="#9600C8" stroke="#3a3a5a" stroke-width="1"/>
<rect x="265" y="529" width="42" height="42" fill="#9600C8" stroke="#3a3a5a" stroke-width="1"/>
<rect x="309" y="529" width="42" height="42" fill="#9600C8" stroke="#3a3a5a" stroke-width="1"/>
<rect x="353" y="529" width="42" height="42" fill="#00A000" stroke="#3a3a5a" stroke-width="1"/>
<rect x="397" y="529" width="42" height="42" fill="#00A000" stroke="#3a3a5a" stroke-width="1"/>
<rect x="1" y="573" width="42" height="42" fill="#9600C8" stroke="#3a3a5a" stroke-width="1"/>
<rect x="45" y="573" width="42" height="42" fill="#C82000" stroke="#3a3a5a" stroke-width="1"/>
<rect x="89" y="573" width="42" height="42" fill="#C82000" stroke="#3a3a5a" stroke-width="1"/>
<rect x="133" y="573" width="42" height="42" fill="#9600C8" stroke="#3a3a5a" stroke-width="1"/>
<rect x="177" y="573" width="42" height="42" fill="#2850C8" stroke="#3a3a5a" stroke-width="1"/>
<rect x="221" y="573" width="42" height="42" fill="#C86000" stroke="#3a3a5a" stroke-width="1"/>
<rect x="265" y="573" width="42" height="42" fill="#9600C8" stroke="#3a3a5a" stroke-width="1"/>
<rect x="309" y="573" width="42" height="42" fill="#00A000" stroke="#3a3a5a" stroke-width="1"/>
<rect x="353" y="573" width="42" height="42" fill="#00A000" stroke="#3a3a5a" stroke-width="1"/>
<rect x="397" y="573" width="42" height="42" fill="#9600C8" stroke="#3a3a5a" stroke-width="1"/>
<rect x="1" y="617" width="42" height="42" fill="#9600C8" stroke="#3a3a5a" stroke-width="1"/>
<rect x="45" y="617" width="42" height="42" fill="#9600C8" stroke="#3a3a5a" stroke-width="1"/>
<rect x="89" y="617" width="42" height="42" fill="#00A000" stroke="#3a3a5a" stroke-width="1"/>
<rect x="133" y="617" width="42" height="42" fill="#00A000" stroke="#3a3a5a" stroke-width="1"/>
<rect x="177" y="617" width="42" height="42" fill="#2850C8" stroke="#3a3a5a" stroke-width="1"/>
<rect x="221" y="617" width="42" height="42" fill="#C86000" stroke="#3a3a5a" stroke-width="1"/>
<rect x="265" y="617" width="42" height="42" fill="#C82000" stroke="#3a3a5a" stroke-width="1"/>
<rect x="309" y="617" width="42" height="42" fill="#C82000" stroke="#3a3a5a" stroke-width="1"/>
<rect x="353" y="617" width="42" height="42" fill="#9600C8" stroke="#3a3a5a" stroke-width="1"/>
<rect x="397" y="617" width="42" height="42" fill="#9600C8" stroke="#3a3a5a" stroke-width="1"/>
<rect x="1" y="661" width="42" height="42" fill="#9600C8" stroke="#3a3a5a" stroke-width="1"/>
<rect x="45" y="661" width="42" height="42" fill="#00A000" stroke="#3a3a5a" stroke-width="1"/>
<rect x="89" y="661" width="42" height="42" fill="#00A000" stroke="#3a3a5a" stroke-width="1"/>
<rect x="133" y="661" width="42" height="42" fill="#2850C8" stroke="#3a3a5a" stroke-width="1"/>
<rect x="177" y="661" width="42" height="42" fill="#2850C8" stroke="#3a3a5a" stroke-width="1"/>
<rect x="221" y="661" width="42" height="42" fill="#C86000" stroke="#3a3a5a" stroke-width="1"/>
<rect x="265" y="661" width="42" height="42" fill="#C86000" stroke="#3a3a5a" stroke-width="1"/>
<rect x="309" y="661" width="42" height="42" fill="#C82000" stroke="#3a3a5a" stroke-width="1"/>
<rect x="353" y="661" width="42" height="42" fill="#C82000" stroke="#3a3a5a" stroke-width="1"/>
<rect x="397" y="661" width="42" height="42" fill="#9600C8" stroke="#3a3a5a" stroke-width="1"/>
<rect x="1" y="705" width="42" height="42" fill="#9600C8" stroke="#3a3a5a" stroke-width="1"/>
<rect x="45" y="705" width="42" height="42" fill="#C82000" stroke="#3a3a5a" stroke-width="1"/>
<rect x="89" y="705" width="42" height="42" fill="#C82000" stroke="#3a3a5a" stroke-width="1"/>
<rect x="133" y="705" width="42" height="42" fill="#C86000" stroke="#3a3a5a" stroke-width="1"/>
<rect x="177" y="705" width="42" height="42" fill="#C86000" stroke="#3a3a5a" stroke-width="1"/>
<rect x="221" y="705" width="42" height="42" fill="#2850C8" stroke="#3a3a5a" stroke-width="1"/>
<rect x="265" y="705" width="42" height="42" fill="#2850C8" stroke="#3a3a5a" stroke-width="1"/>
<rect x="309" y="705" width="42" height="42" fill="#00A000" stroke="#3a3a5a" stroke-width="1"/>
<rect x="353" y="705" width="42" height="42" fill="#00A000" stroke="#3a3a5a" stroke-width="1"/>
<rect x="397" y="705" width="42" height="42" fill="#9600C8" stroke="#3a3a5a" stroke-width="1"/>
<rect x="1" y="749" width="42" height="42" fill="#9600C8" stroke="#3a3a5a" stroke-width="1"/>
<rect x="45" y="749" width="42" height="42" fill="#9600C8" stroke="#3a3a5a" stroke-width="1"/>
<rect x="89" y="749" width="42" height="42" fill="#C82000" stroke="#3a3a5a" stroke-width="1"/>
<rect x="133" y="749" width="42" height="42" fill="#C82000" stroke="#3a3a5a" stroke-width="1"/>
<rect x="177" y="749" width="42" height="42" fill="#C86000" stroke="#3a3a5a" stroke-width="1"/>
<rect x="221" y="749" width="42" height="42" fill="#2850C8" stroke="#3a3a5a" stroke-width="1"/>
<rect x="265" y="749" width="42" height="42" fill="#00A000" stroke="#3a3a5a" stroke-width="1"/>
<rect x="309" y="749" width="42" height="42" fill="#00A000" stroke="#3a3a5a" stroke-width="1"/>
<rect x="353" y="749" width="42" height="42" fill="#9600C8" stroke="#3a3a5a" stroke-width="1"/>
<rect x="397" y="749" width="42" height="42" fill="#9600C8" stroke="#3a3a5a" stroke-width="1"/>
<rect x="1" y="793" width="42" height="42" fill="#9600C8" stroke="#3a3a5a" stroke-width="1"/>
<rect x="45" y="793" width="42" height="42" fill="#00A000" stroke="#3a3a5a" stroke-width="1"/>
<rect x="89" y="793" width="42" height="42" fill="#00A000" stroke="#3a3a5a" stroke-width="1"/>
<rect x="133" y="793" width="42" height="42" fill="#9600C8" stroke="#3a3a5a" stroke-width="1"/>
<rect x="177" y="793" width="42" height="42" fill="#C86000" stroke="#3a3a5a" stroke-width="1"/>
<rect x="221" y="793" width="42" height="42" fill="#2850C8" stroke="#3a3a5a" stroke-width="1"/>
<rect x="265" y="793" width="42" height="42" fill="#9600C8" stroke="#3a3a5a" stroke-width="1"/>
<rect x="309" y="793" width="42" height="42" fill="#C82000" stroke="#3a3a5a" stroke-width="1"/>
<rect x="353" y="793" width="42" height="42" fill="#C82000" stroke="#3a3a5a" stroke-width="1"/>
<rect x="397" y="793" width="42" height="42" fill="#9600C8" stroke="#3a3a5a" stroke-width="1"/>
<rect x="1" y="837" width="42" height="42" fill="#00A000" stroke="#3a3a5a" stroke-width="1"/>
<rect x="45" y="837" width="42" height="42" fill="#00A000" stroke="#3a3a5a" stroke-width="1"/>
<rect x="89" y="837" width="42" height="42" fill="#9600C8" stroke="#3a3a5a" stroke-width="1"/>
<rect x="133" y="837" width="42" height="42" fill="#9600C8" stroke="#3a3a5a" stroke-width="1"/>
<rect x="177" y="837" width="42" height="42" fill="#9600C8" stroke="#3a3a5a" stroke-width="1"/>
<rect x="221" y="837" width="42" height="42" fill="#9600C8" stroke="#3a3a5a" stroke-width="1"/>
<rect x="265" y="837" width="42" height="42" fill="#9600C8" stroke="#3a3a5a" stroke-width="1"/>
<rect x="309" y="837" width="42" height="42" fill="#9600C8" stroke="#3a3a5a" stroke-width="1"/>
<rect x="353" y="837" width="42" height="42" fill="#C82000" stroke="#3a3a5a" stroke-width="1"/>
<rect x="397" y="837" width="42" height="42" fill="#C82000" stroke="#3a3a5a" stroke-width="1"/>
</svg>